<?xml version="1.0" standalone="no"?>
<!DOCTYPE svg PUBLIC "-//W3C//DTD SVG 20010904//EN"
 "http://www.w3.org/TR/2001/REC-SVG-20010904/DTD/svg10.dtd">
<svg version="1.0" xmlns="http://www.w3.org/2000/svg"
 width="260.000000pt" height="260.000000pt" viewBox="0 0 260.000000 260.000000"
 preserveAspectRatio="xMidYMid meet">
<metadata>
Created by potrace 1.14, written by Peter Selinger 2001-2017
</metadata>
<g transform="translate(0.000000,260.000000) scale(0.100000,-0.100000)"
fill="#000000" stroke="none">
<path d="M1493 2051 c-37 -49 -75 -99 -83 -111 -8 -13 -34 -47 -58 -76 -24
-30 -41 -54 -38 -54 4 0 -3 -9 -14 -20 -11 -11 -27 -20 -36 -20 -24 0 -74 -58
-74 -86 0 -13 -2 -24 -5 -24 -8 0 -54 53 -55 63 0 4 -11 20 -25 35 -14 15 -25
32 -25 39 0 7 -6 13 -13 13 -8 0 -20 12 -28 27 -8 15 -21 34 -29 43 -8 9 -24
28 -35 44 -11 15 -30 40 -42 54 -13 15 -23 30 -23 35 0 18 -38 5 -50 -18 -7
-14 -17 -25 -22 -25 -4 0 -8 -5 -8 -11 0 -9 -22 -40 -93 -129 -34 -42 -36 -46
-67 -90 -13 -19 -29 -40 -35 -46 -5 -6 -17 -22 -25 -34 -15 -21 -77 -104 -125
-165 -13 -16 -38 -52 -57 -79 -19 -27 -38 -51 -44 -53 -5 -2 -18 11 -29 27
-26 40 -57 59 -104 66 -34 5 -41 2 -59 -23 -11 -16 -23 -46 -26 -67 -4 -21
-22 -102 -40 -180 -67 -274 -71 -307 -44 -341 17 -21 23 -24 35 -13 20 16 29
42 37 101 9 65 23 97 42 97 45 0 109 56 145 127 13 27 27 50 31 53 3 3 9 22
13 43 l7 38 69 -2 69 -2 0 -59 c0 -63 -9 -72 -31 -32 -21 41 -55 49 -88 22
-43 -36 -115 -200 -107 -246 2 -15 5 -32 5 -39 2 -19 31 -43 53 -43 11 0 38
18 60 40 l41 40 33 -37 c26 -30 34 -48 35 -83 1 -25 1 -48 0 -52 -1 -9 31 -18
73 -21 l30 -2 1 -70 c0 -39 4 -76 9 -83 4 -7 1 -12 -9 -12 -8 0 -23 -9 -32
-19 -9 -11 -20 -18 -25 -15 -21 13 -5 -7 17 -22 34 -22 150 -28 170 -8 21 22
19 41 -7 55 -13 7 -24 12 -25 11 -2 -1 -13 -2 -25 -2 -22 1 -22 2 7 26 17 14
45 39 64 55 46 40 68 52 76 39 11 -17 43 -11 69 13 14 13 23 27 19 30 -3 4 9
7 28 8 275 5 307 9 294 30 -4 5 -2 9 3 9 5 0 8 18 6 40 l-2 40 159 -3 c176 -4
164 0 274 -92 96 -81 91 -75 68 -75 -11 0 -34 -5 -52 -11 -48 -17 -38 -65 14
-67 23 -1 164 -1 183 0 8 1 19 12 25 25 14 32 -6 51 -58 55 l-40 3 0 83 c0 45
1 82 3 82 2 0 11 -4 21 -9 13 -7 25 -4 46 13 28 22 29 26 31 122 1 54 7 112
13 127 6 16 9 32 6 37 -3 5 1 15 9 23 8 8 13 17 11 19 -3 3 1 26 9 52 8 25 15
49 15 51 1 3 1 6 2 8 1 1 2 13 3 27 2 37 14 50 46 50 30 0 43 19 33 48 -6 15
-59 89 -74 102 -3 3 -41 52 -85 110 -43 58 -83 110 -89 116 -5 6 -21 25 -35
43 -14 19 -44 58 -68 87 -23 30 -40 54 -36 54 3 0 -7 13 -23 30 -43 45 -53 58
-53 70 0 6 -4 8 -10 5 -5 -3 -10 0 -10 8 0 13 -30 47 -43 47 -3 0 -36 -40 -74
-89z m90 -123 c7 -7 53 -67 102 -133 107 -143 115 -153 138 -177 9 -10 14 -18
11 -18 -3 0 2 -7 10 -16 15 -14 14 -18 -9 -46 -17 -21 -22 -34 -16 -45 5 -10
3 -26 -6 -44 -17 -34 -50 -39 -74 -11 -17 20 -32 65 -19 57 20 -12 -5 37 -27
55 -15 12 -23 26 -20 35 4 8 2 17 -3 20 -6 4 -10 15 -10 26 0 10 -4 19 -10 19
-5 0 -9 4 -7 9 3 13 -104 110 -146 132 l-38 20 29 34 c17 18 38 47 48 64 20
34 29 37 47 19z m-663 -133 c12 -20 27 -41 33 -48 7 -6 25 -30 42 -52 16 -22
37 -49 47 -59 10 -11 20 -28 24 -38 3 -10 9 -18 13 -18 5 0 20 -18 35 -40 21
-31 25 -47 20 -73 -13 -60 -10 -111 8 -144 20 -36 19 -87 0 -89 -7 -1 -17 -2
-22 -3 -13 -1 -51 -82 -44 -93 3 -4 0 -8 -5 -8 -6 0 -10 -3 -10 -7 1 -5 0 -10
-1 -13 -8 -19 -4 -120 7 -140 12 -23 11 -26 -10 -31 -28 -7 -57 0 -57 15 0 6
7 31 16 55 8 25 20 68 25 95 6 28 12 56 13 61 2 6 7 28 11 50 12 55 12 55 14
58 5 5 11 65 14 118 3 77 -11 92 -75 85 -63 -8 -107 -32 -121 -66 -5 -13 -6
-13 -6 0 -1 22 -31 37 -71 35 -57 -3 -66 -11 -69 -62 -1 -26 -4 -50 -7 -55 -3
-4 -1 -8 4 -8 5 0 7 -10 5 -23 -3 -13 2 -29 10 -35 12 -10 10 -17 -17 -46 -30
-32 -79 -119 -91 -163 -3 -12 -6 -45 -7 -73 0 -30 -4 -48 -10 -44 -10 7 -1
129 12 164 1 3 2 8 1 13 0 4 2 7 6 7 5 0 9 10 10 23 0 12 11 54 23 92 39 126
41 142 26 180 -18 42 -48 46 -65 9 -6 -14 -9 -29 -6 -34 3 -5 1 -11 -5 -15 -5
-3 -10 3 -10 15 0 11 -5 29 -11 39 -13 19 -5 33 98 168 27 34 67 88 90 120 44
61 85 113 89 113 1 0 12 -16 24 -35z m880 -437 c28 10 28 10 32 -31 5 -63 -4
-103 -31 -133 -37 -42 -64 -114 -66 -172 -1 -28 -6 -51 -11 -50 -5 2 -8 14 -7
28 9 88 11 145 5 154 -10 16 -10 28 0 49 5 9 5 17 1 17 -5 0 -8 21 -7 48 2 62
-2 70 -40 81 -30 9 -30 9 -4 10 15 1 30 5 33 11 4 6 17 4 36 -6 23 -12 38 -13
59 -6z m-1516 -24 c37 -14 4 -133 -46 -168 -41 -29 -41 -25 -1 117 17 58 20
62 47 51z m614 -31 c-1 -5 1 -18 6 -30 5 -17 16 -23 39 -24 l32 -1 -37 -10
c-33 -9 -38 -14 -39 -41 l-1 -32 -9 33 c-5 17 -14 33 -19 33 -6 1 -14 2 -19 3
-23 3 -21 16 2 16 15 0 28 6 29 13 0 6 2 17 3 22 2 6 3 13 4 18 0 4 3 7 6 7 3
0 4 -3 3 -7z m415 -122 c-40 -69 -42 -69 -41 0 1 80 11 95 43 67 l24 -21 -26
-46z m219 -49 c-1 -7 -4 -20 -6 -30 -7 -36 -18 -49 -39 -48 -19 1 -22 6 -19
41 2 22 8 43 15 47 18 12 52 5 49 -10z m-630 -62 c2 -8 11 -21 21 -28 14 -11
15 -17 5 -35 -6 -12 -11 -23 -10 -24 1 -2 2 -12 2 -23 0 -14 -7 -20 -21 -20
-17 0 -20 4 -16 22 3 11 0 33 -8 49 -13 24 -13 29 1 40 9 7 13 21 10 32 -3 12
-1 16 4 11 5 -5 10 -16 12 -24z m258 -1 c-13 -23 -17 -24 -17 -4 0 8 4 15 9
15 5 0 6 5 2 12 -4 7 -3 8 4 4 9 -5 9 -13 2 -27z m-371 -166 c-5 -13 -5 -23
-1 -23 9 -1 -38 -40 -48 -40 -15 0 0 61 22 91 20 26 23 28 29 12 3 -10 3 -28
-2 -40z"/>
<path d="M2487 1405 c-21 -21 -30 -70 -18 -94 9 -16 7 -23 -12 -38 -12 -10
-35 -34 -50 -55 l-28 -36 -24 24 c-26 26 -41 29 -64 15 -11 -7 -18 -4 -26 12
-6 12 -20 23 -32 25 -24 4 -46 -36 -59 -106 -4 -20 -9 -41 -12 -47 -3 -5 -7
-25 -9 -44 -4 -39 -22 -79 -23 -49 0 9 -4 18 -10 20 -6 2 -1 20 10 43 38 78
29 145 -25 181 -22 14 -26 14 -49 -1 -25 -17 -57 -58 -60 -79 -1 -6 -4 -15 -7
-21 -21 -36 -36 -148 -26 -185 16 -52 22 -62 49 -76 27 -14 31 -13 73 17 24
17 46 39 47 48 3 11 9 7 23 -16 11 -18 25 -33 32 -33 14 0 38 47 48 94 12 57
134 156 135 109 1 -10 7 -36 15 -58 16 -45 14 -51 -14 -36 -43 24 -51 -54 -10
-98 41 -44 119 -13 119 48 0 16 -7 51 -16 79 -11 32 -14 61 -9 79 7 26 8 27
17 8 5 -12 18 -26 28 -33 16 -9 20 -7 34 22 18 37 22 111 6 121 -5 3 2 22 16
42 14 20 22 43 19 51 -3 7 -5 20 -5 28 0 18 -36 54 -54 54 -8 0 -21 -7 -29
-15z m-432 -395 c3 -5 -1 -10 -9 -10 -9 0 -16 5 -16 10 0 6 4 10 9 10 6 0 13
-4 16 -10z"/>
</g>
</svg>
